<svg width="231" height="51" viewBox="0 0 231 51" fill="none" xmlns="http://www.w3.org/2000/svg">
<path d="M13.7036 2.67331L9.96946 4.69854L9.92033 33.504L15.8949 39.4715L21.8596 45.4489L27.8833 39.4322L33.8972 33.4057V19.0374V4.66904L30.2417 2.7028C28.2272 1.61154 26.4978 0.697236 26.4093 0.657912C26.2423 0.598924 26.2324 1.36576 26.2324 15.9258V31.2428L21.9087 35.5685L17.5851 31.2428V15.9356C17.5851 7.51026 17.5556 0.628418 17.5163 0.628418C17.4671 0.638249 15.7573 1.55255 13.7036 2.67331Z" fill="white"/>
<path d="M35.2729 34.192L31.8827 37.5838L28.4926 40.9854V45.7634C28.4926 48.4571 28.5319 50.5708 28.581 50.6003C28.6301 50.6298 31.8827 47.4642 35.8035 43.571L42.9376 36.4827V11.7474L39.4295 9.8598C37.4937 8.81769 35.7642 7.88372 35.5972 7.77558L35.2729 7.57896V34.192Z" fill="white"/>
<path d="M4.64346 9.75172L0.889709 11.7769L0.879883 36.4533L7.99432 43.5711C12.2099 47.7887 15.1481 50.6594 15.2169 50.6201C15.2955 50.5709 15.3249 49.1945 15.3249 45.8126V41.074L8.54461 34.2904V20.9986C8.54461 13.6842 8.51513 7.69699 8.47582 7.70683C8.42669 7.71666 6.70704 8.63096 4.64346 9.75172Z" fill="white"/>
<path d="M174.758 15.2672C174.758 18.0199 174.729 20.2811 174.699 20.2811C174.66 20.2811 174.385 20.0452 174.07 19.7601C171.859 17.7054 167.565 17.2728 164.047 18.7573C160.028 20.4483 157.719 24.7445 158.151 29.7191C158.603 35.0083 161.944 38.577 167.074 39.2652C168.066 39.4028 169.874 39.3242 170.847 39.1177C172.164 38.8326 173.373 38.2133 174.365 37.3186C174.68 37.0335 174.965 36.7976 174.994 36.7976C175.023 36.7976 175.053 37.3088 175.053 37.9282V39.0587H180.752V10.2533H174.758V15.2672ZM170.749 22.9454C171.938 23.201 173.206 24.076 173.913 25.1279C175.033 26.8287 175.161 29.6404 174.208 31.5772C173.569 32.8749 172.302 33.8974 170.896 34.2316C170.641 34.2906 170.022 34.3398 169.521 34.3496C167.919 34.3496 166.897 33.9367 165.806 32.8651C164.735 31.8033 164.244 30.5056 164.244 28.677C164.244 27.3596 164.381 26.6812 164.833 25.7276C165.472 24.4004 166.799 23.319 168.204 22.9749C168.852 22.8176 170.081 22.8077 170.749 22.9454Z" fill="white"/>
<path d="M67.3537 11.4921C63.9537 11.8952 61.674 12.8586 59.9838 14.5889C57.7728 16.8501 57.2225 20.4876 58.6572 23.3289C59.1584 24.3218 60.5538 25.5802 61.9 26.2586C62.7451 26.6813 65.0248 27.399 67.3537 27.9594C71.1075 28.8835 72.1196 29.2669 72.9549 30.1026C73.6329 30.7809 73.7705 31.3315 73.4855 32.2654C73.1809 33.2977 72.1786 33.9859 70.5277 34.3005C69.3387 34.5266 66.7248 34.448 65.3491 34.153C63.4526 33.7499 61.4774 32.9536 60.0133 32.0197C59.7185 31.8329 59.4532 31.6952 59.4335 31.7149C59.4139 31.7346 58.9324 32.7865 58.3624 34.0547L57.3208 36.3552L57.5861 36.5715C58.0676 36.9549 59.4335 37.6628 60.4751 38.0757C64.278 39.5897 69.3485 39.9239 73.1121 38.9212C74.822 38.4591 76.5121 37.5251 77.6127 36.4339C79.067 34.9985 79.8335 33.1502 79.8335 31.0759C79.8335 28.5492 78.8607 26.7403 76.748 25.3541C75.4017 24.4693 74.1144 24.0269 69.7613 22.9356C65.7422 21.923 64.7792 21.5101 64.3173 20.5466C63.8653 19.6225 64.1601 18.3346 64.9757 17.6169C66.0468 16.6731 68.2971 16.2504 70.6948 16.5453C72.4832 16.7715 74.3503 17.3515 76.011 18.2068L76.7676 18.5902L77.7208 16.2209C78.8115 13.5271 78.8115 13.8319 77.7208 13.2814C76.3451 12.5834 74.5075 12.0033 72.5618 11.6789C71.6676 11.5216 68.13 11.4036 67.3537 11.4921Z" fill="white"/>
<path d="M91.9693 17.9313C88.9133 18.2164 86.0242 19.7894 84.2555 22.1293C83.5774 23.0239 82.8306 24.5576 82.526 25.6882C82.2115 26.8581 82.1034 29.0504 82.2803 30.3187C82.9583 34.9 86.2601 38.1345 91.2814 39.1274C92.4999 39.3634 95.6346 39.3634 96.8335 39.1274C98.7595 38.744 100.224 38.0853 101.55 37.0137C102.828 35.9814 102.877 36.2371 101.039 34.2315L99.4473 32.5012L98.8676 32.9731C97.5213 34.0644 96.3127 34.4478 94.2786 34.4674C92.7653 34.4773 91.8514 34.2806 90.7999 33.7203C89.6601 33.1107 88.53 31.7049 88.3237 30.6234L88.2647 30.3088H103.987L104.066 29.5518C104.479 25.118 102.268 20.9004 98.5826 19.0816C96.6271 18.1083 94.2884 17.7052 91.9693 17.9313ZM94.6225 22.5913C96.1358 22.9846 97.256 23.8891 97.9144 25.2359C98.1306 25.6685 98.3271 26.1994 98.3664 26.396L98.4254 26.7696H97.3346C96.5288 26.7696 96.2439 26.7401 96.2439 26.6418C96.2439 26.5828 96.1358 26.2977 96.008 26.0224C94.9369 23.7121 91.6549 23.7121 90.5838 26.0224C90.456 26.2977 90.3479 26.5828 90.3479 26.6418C90.3479 26.7401 90.063 26.7696 89.267 26.7696C88.0289 26.7696 88.0878 26.8188 88.3826 25.8553C88.8838 24.243 90.2988 22.9551 91.9595 22.5913C92.7849 22.4144 93.9248 22.4144 94.6225 22.5913Z" fill="white"/>
<path d="M116.437 17.9315C114.541 18.0986 112.399 18.8851 110.885 19.9665C109.559 20.9103 108.311 22.4243 107.584 23.9482C106.267 26.7599 106.267 30.4269 107.594 33.2288C108.105 34.3201 108.478 34.8706 109.264 35.7161C111.387 38.0166 114.128 39.1669 117.813 39.3242C120.732 39.4421 123.237 38.8621 125.154 37.6332C125.851 37.1711 127.001 36.1585 127.001 35.9914C127.001 35.8734 123.955 32.5701 123.847 32.5701C123.807 32.5701 123.621 32.6979 123.444 32.8552C122.677 33.5237 121.695 34.0251 120.614 34.3004C119.7 34.5364 117.646 34.5265 116.732 34.2906C114.846 33.8089 113.411 32.5701 112.851 30.948C112.743 30.6334 112.654 30.3581 112.654 30.3384C112.654 30.3286 116.211 30.3089 120.555 30.3089H128.446L128.514 29.2865C128.642 27.2613 128.249 25.2459 127.394 23.5254C125.733 20.232 122.727 18.2657 118.806 17.9216C118.206 17.8725 117.627 17.8331 117.518 17.8331C117.41 17.843 116.929 17.8823 116.437 17.9315ZM119.022 22.5914C120.692 22.9847 122.039 24.1644 122.559 25.6981C122.668 25.993 122.776 26.347 122.815 26.4944L122.874 26.7697H121.793C120.84 26.7697 120.702 26.75 120.653 26.5927C120.201 25.1476 119.11 24.3021 117.715 24.3021C116.526 24.3021 115.563 24.9018 115.013 25.993C114.905 26.1995 114.816 26.4551 114.816 26.5731C114.816 26.7599 114.757 26.7697 113.735 26.7697C112.487 26.7697 112.527 26.809 112.841 25.7964C113.175 24.715 114.001 23.7024 115.022 23.1027C116.025 22.5128 117.754 22.2965 119.022 22.5914Z" fill="white"/>
<path d="M144.05 17.9215C142.036 18.1378 140.051 18.9931 138.724 20.2122L138.302 20.6054V18.2164H132.602V39.0586H138.587L138.626 33.1304C138.655 27.8314 138.675 27.153 138.832 26.632C139.353 24.882 140.503 23.7121 142.144 23.2795C142.822 23.0927 144.296 23.0927 144.964 23.2697C146.015 23.5548 146.851 24.2626 147.313 25.2654C147.794 26.3075 147.824 26.8483 147.833 33.1796V39.0586H153.828V32.3931C153.828 25.2949 153.798 24.7542 153.326 23.3287C152.904 22.031 152.383 21.1855 151.42 20.2122C150.634 19.4355 150.388 19.2487 149.494 18.8162C147.912 18.0395 145.966 17.7249 144.05 17.9215Z" fill="white"/>
<path d="M193.33 17.9215C191.532 18.0591 189.675 18.4917 188.132 19.1209C187.297 19.4551 185.862 20.2711 185.862 20.3989C185.862 20.4481 186.324 21.4115 186.904 22.552L187.936 24.6067L188.378 24.3019C190.422 22.8961 194.136 22.2669 196.16 22.9747C197.644 23.5056 198.568 24.6362 198.706 26.1109L198.765 26.7499L195.237 26.799C191.395 26.858 190.776 26.9269 189.164 27.4676C186.462 28.372 185.047 30.2793 185.047 33.0124C185.047 34.664 185.508 35.9027 186.54 37.0235C187.474 38.0361 188.496 38.6162 190.088 39.0389C190.913 39.2552 191.228 39.2847 192.741 39.2945C194.588 39.3043 195.325 39.1864 196.475 38.7243C197.448 38.3212 198.48 37.4954 198.941 36.7482L199.128 36.4533V39.0586L201.958 39.0389L204.778 39.0094L204.808 33.0615C204.818 29.7877 204.788 26.6024 204.739 25.9732C204.454 22.6306 203.128 20.4284 200.602 19.111C198.725 18.1279 196.141 17.7052 193.33 17.9215ZM198.735 31.4394C198.735 32.4028 198.706 32.6388 198.529 32.9829C198.263 33.5039 197.517 34.2904 197.015 34.5952C195.708 35.3522 193.684 35.4997 192.338 34.9196C190.471 34.1135 190.412 31.4984 192.24 30.7119C192.996 30.3874 193.586 30.3285 196.259 30.3186L198.735 30.3088V31.4394Z" fill="white"/>
<path d="M211.234 28.5094C213.662 34.182 215.696 38.9109 215.735 39.0288C215.804 39.196 215.745 39.3926 215.509 39.8547C214.644 41.5358 213.337 42.2141 211.539 41.9094C210.802 41.7914 209.81 41.3687 209.269 40.9558C209.092 40.8181 208.925 40.7296 208.906 40.7493C208.886 40.769 208.385 41.7226 207.795 42.8728L206.714 44.9669L207.078 45.2618C208.395 46.3531 211.215 47.0413 213.514 46.825C214.792 46.6972 215.489 46.5104 216.619 45.9598C217.435 45.5666 217.671 45.3896 218.536 44.5245C219.597 43.4529 220.157 42.6172 220.835 41.0541C221.179 40.2774 224.441 32.5992 226.014 28.883C226.357 28.067 227.517 25.3438 228.588 22.8073L230.553 18.2162H224.726L223.822 20.4085C223.056 22.2666 219.538 30.7215 219.037 31.9307L218.87 32.3239L218.3 30.9476C217.985 30.1906 216.875 27.5165 215.843 24.9997C214.801 22.4829 213.75 19.9268 213.495 19.3173L213.033 18.2162H206.812L211.234 28.5094Z" fill="white"/>
</svg>
